<?xml version="1.0" encoding="UTF-8" standalone="no"?>
<svg
   xmlns:dc="http://purl.org/dc/elements/1.1/"
   xmlns:cc="http://creativecommons.org/ns#"
   xmlns:rdf="http://www.w3.org/1999/02/22-rdf-syntax-ns#"
   xmlns:svg="http://www.w3.org/2000/svg"
   xmlns="http://www.w3.org/2000/svg"
   height="72"
   width="100"
   id="svg2"
   xml:space="preserve"
   enable-background="new 0 0 100 100"
   viewBox="0 0 100 72"
   y="0px"
   x="0px"
   version="1.1"><metadata
     id="metadata20"><rdf:RDF><cc:Work
         rdf:about=""><dc:format>image/svg+xml</dc:format><dc:type
           rdf:resource="http://purl.org/dc/dcmitype/StillImage" /><dc:title></dc:title></cc:Work></rdf:RDF></metadata><defs
     id="defs18" /><path
     id="path4"
     d="m 0.96583048,1.685915 0,69.018005 98.59799852,0 0,-69.018005 -98.59799852,0 z M 96.686831,67.82892 l -81.04,0 -11.8050005,-11.806005 0,-51.462 81.0390005,0 11.806,11.806 0,51.462005 z" /><g
     transform="translate(0.26483051,-13.805085)"
     id="g6"><path
       id="path8"
       d="m 82.661,39.432 c 0,0 -10.181,-2.69 -21.959,1.338 0.209,2.086 1.113,4.02 2.523,5.506 4.484,-2.627 10.544,-4.409 19.436,-4.409 0,0.937 1.405,1.03 1.405,-0.094 l 0,-2.249 c 0,-1.123 -1.405,-1.029 -1.405,-0.092 z" /></g><path
     id="path10"
     d="m 59.033831,27.682915 c -5.37,2.154 -10.966,5.772 -16.011,11.712 -0.562,0.656 -1.124,0.563 -1.03,-0.374 0.28,-3.09 0.749,-9.46 -0.094,-14.987 -0.469,-3.09 -20.233,-2.904 -20.608,0 0,0 -2.341,28.103 10.585,29.6 17.938,2.135 18.17,-11.728 29.655,-19.894 -1.508,-1.626 -2.423,-3.768 -2.497,-6.057 z m -27.253,-2.884 c -4.201,0 -7.606,-0.314 -7.606,-0.701 0,-0.387 3.405,-0.701 7.606,-0.701 4.201,0 7.605,0.314 7.605,0.701 0,0.387 -3.404,0.701 -7.605,0.701 z" /></svg>