<?xml version="1.0" encoding="UTF-8" standalone="no"?>
<svg
   xmlns:dc="http://purl.org/dc/elements/1.1/"
   xmlns:cc="http://creativecommons.org/ns#"
   xmlns:rdf="http://www.w3.org/1999/02/22-rdf-syntax-ns#"
   xmlns:svg="http://www.w3.org/2000/svg"
   xmlns="http://www.w3.org/2000/svg"
   viewBox="0 0 918.58801 614.0166"
   height="614.0166"
   width="918.58801"
   xml:space="preserve"
   version="1.1"
   id="svg2"><metadata
     id="metadata8"><rdf:RDF><cc:Work
         rdf:about=""><dc:format>image/svg+xml</dc:format><dc:type
           rdf:resource="http://purl.org/dc/dcmitype/StillImage" /><dc:title></dc:title></cc:Work></rdf:RDF></metadata><defs
     id="defs6"><clipPath
       id="clipPath18"
       clipPathUnits="userSpaceOnUse"><path
         id="path20"
         d="m 0,0 959.76,0 0,540 L 0,540 0,0 Z" /></clipPath><clipPath
       id="clipPath28"
       clipPathUnits="userSpaceOnUse"><path
         id="path30"
         d="M 0,0 960,0 960,540 0,540 0,0 Z" /></clipPath></defs><g
     transform="matrix(1.25,0,0,-1.25,-76.752,672.56375)"
     id="g10"><g
       id="g12" /><g
       id="g14"><g
         clip-path="url(#clipPath18)"
         id="g16"><path
           id="path22"
           style="fill:#ffffff;fill-opacity:1;fill-rule:nonzero;stroke:none"
           d="m 0,0 959.76,0 0,540 L 0,540 0,0 Z" /></g></g><g
       id="g24"><g
         clip-path="url(#clipPath28)"
         id="g26"><path
           id="path32"
           style="fill:#ffffff;fill-opacity:1;fill-rule:nonzero;stroke:none"
           d="M 0,0 960,0 960,540 0,540 0,0 Z" /><path
           id="path34"
           style="fill:#d9d9d9;fill-opacity:1;fill-rule:nonzero;stroke:none"
           d="m 76.9315,64.00001 701.5525,0 0,458.2466 -701.5525,0 0,-458.2466 z" /><path
           id="path36"
           style="fill:#00b0f0;fill-opacity:1;fill-rule:nonzero;stroke:none"
           d="m 76.9315,486.7398 701.5525,0 0,35.50685 -701.5525,0 0,-35.50685 z" /><g
           transform="matrix(0.24,0,0,0.24,84.1315,-41.76)"
           id="g38"><text
             id="text40"
             style="font-variant:normal;font-weight:normal;font-size:75px;font-family:'Open Sans';-inkscape-font-specification:OpenSans;writing-mode:lr-tb;fill:#ffffff;fill-opacity:1;fill-rule:nonzero;stroke:none"
             transform="matrix(1,0,0,-1,0,2250)"><tspan
               id="tspan42"
               y="0"
               x="0 46.357498 87.464996 114.0225 159.855 205.6875 224.44501">RStudio</tspan></text>
</g><path
           id="path44"
           style="fill:#ffffff;fill-opacity:1;fill-rule:nonzero;stroke:none"
           d="m 87.99992,256 349.3333,0 0,220 -349.3333,0 0,-220 z" /><path
           id="path46"
           style="fill:#ffffff;fill-opacity:1;fill-rule:nonzero;stroke:none"
           d="m 87.99992,74.6667 349.3333,0 0,170.5935 -349.3333,0 0,-170.5935 z" /><path
           id="path48"
           style="fill:#ffffff;fill-opacity:1;fill-rule:nonzero;stroke:none"
           d="m 448.4017,74.6667 318.265,0 0,209.3333 -318.265,0 0,-209.3333 z" /><path
           id="path50"
           style="fill:#ffffff;fill-opacity:1;fill-rule:nonzero;stroke:none"
           d="m 448.4016,294.7398 318.265,0 0,181.2602 -318.265,0 0,-181.2602 z" /><path
           id="path52"
           style="fill:#f2f2f2;fill-opacity:1;fill-rule:nonzero;stroke:none"
           d="m 87.99992,445.3333 349.3333,0 0,30.66669 -349.3333,0 0,-30.66669 z" /><g
           transform="matrix(0.24,0,0,0.24,238.1591,-85.44)"
           id="g54"><text
             id="text56"
             style="font-variant:normal;font-weight:bold;font-size:75px;font-family:'Open Sans';-inkscape-font-specification:OpenSans-Bold;writing-mode:lr-tb;fill:#7f7f7f;fill-opacity:1;fill-rule:nonzero;stroke:none"
             transform="matrix(1,0,0,-1,0,2250)"><tspan
               id="tspan58"
               y="0"
               x="0 46.4175 106.335 162.05251">CODE</tspan></text>
</g><path
           id="path60"
           style="fill:#f2f2f2;fill-opacity:1;fill-rule:nonzero;stroke:none"
           d="m 448.4016,445.3333 318.265,0 0,30.66669 -318.265,0 0,-30.66669 z" /><g
           transform="matrix(0.24,0,0,0.24,552.8741,-85.44)"
           id="g62"><text
             id="text64"
             style="font-variant:normal;font-weight:bold;font-size:75px;font-family:'Open Sans';-inkscape-font-specification:OpenSans-Bold;writing-mode:lr-tb;fill:#7f7f7f;fill-opacity:1;fill-rule:nonzero;stroke:none"
             transform="matrix(1,0,0,-1,0,2250)"><tspan
               id="tspan66"
               y="0"
               x="0 71.669998 131.565 181.035 231.03 272.17499 315.345 365.41501 413.31">WORKSPACE</tspan></text>
</g><path
           id="path68"
           style="fill:#f2f2f2;fill-opacity:1;fill-rule:nonzero;stroke:none"
           d="m 448.4016,253.3333 318.265,0 0,30.66669 -318.265,0 0,-30.66669 z" /><g
           transform="matrix(0.24,0,0,0.24,512.9092,-277.44)"
           id="g70"><text
             id="text72"
             style="font-variant:normal;font-weight:bold;font-size:75px;font-family:'Open Sans';-inkscape-font-specification:OpenSans-Bold;writing-mode:lr-tb;fill:#7f7f7f;fill-opacity:1;fill-rule:nonzero;stroke:none"
             transform="matrix(1,0,0,-1,0,2250)"><tspan
               id="tspan74"
               y="0"
               x="0 46.875 87.525002 145.2 188.39999">PLOTS</tspan></text>
</g><g
           transform="matrix(0.24,0,0,0.24,584.9092,-277.44)"
           id="g76"><text
             id="text78"
             style="font-variant:normal;font-weight:bold;font-size:75px;font-family:'Open Sans';-inkscape-font-specification:OpenSans-Bold;writing-mode:lr-tb;fill:#7f7f7f;fill-opacity:1;fill-rule:nonzero;stroke:none"
             transform="matrix(1,0,0,-1,0,2250)"><tspan
               id="tspan80"
               y="0"
               x="0 41.145 66.165001 108.36 150.55499">FILES</tspan></text>
</g><g
           transform="matrix(0.24,0,0,0.24,656.9092,-277.44)"
           id="g82"><text
             id="text84"
             style="font-variant:normal;font-weight:bold;font-size:75px;font-family:'Open Sans';-inkscape-font-specification:OpenSans-Bold;writing-mode:lr-tb;fill:#7f7f7f;fill-opacity:1;fill-rule:nonzero;stroke:none"
             transform="matrix(1,0,0,-1,0,2250)"><tspan
               id="tspan86"
               y="0"
               x="0 57.2925 99.510002 141.72749">HELP</tspan></text>
</g><path
           id="path88"
           style="fill:#f2f2f2;fill-opacity:1;fill-rule:nonzero;stroke:none"
           d="m 87.99992,210.6667 348.5846,0 0,34.59354 -348.5846,0 0,-34.59354 z" /><g
           transform="matrix(0.24,0,0,0.24,219.9722,-318.24)"
           id="g90"><text
             id="text92"
             style="font-variant:normal;font-weight:bold;font-size:75px;font-family:'Open Sans';-inkscape-font-specification:OpenSans-Bold;writing-mode:lr-tb;fill:#7f7f7f;fill-opacity:1;fill-rule:nonzero;stroke:none"
             transform="matrix(1,0,0,-1,0,2250)"><tspan
               id="tspan94"
               y="0"
               x="0 46.4175 106.335 167.30251 208.47 268.38751 310.60501">CONSOLE</tspan></text>
</g><path
           id="path96"
           style="fill:#bfbfbf;fill-opacity:1;fill-rule:nonzero;stroke:none"
           d="m 87.99984,256 37.33346,0 0,189.3333 -37.33346,0 0,-189.3333 z" /><g
           transform="matrix(0.24,0,0,0.24,99.16654,-130.8)"
           id="g98"><text
             id="text100"
             style="font-variant:normal;font-weight:normal;font-size:75px;font-family:'Open Sans';-inkscape-font-specification:OpenSans;writing-mode:lr-tb;fill:#7f7f7f;fill-opacity:1;fill-rule:nonzero;stroke:none"
             transform="matrix(1,0,0,-1,0,2250)"><tspan
               id="tspan102"
               y="0"
               x="0 42.705002">1.</tspan></text>
</g><g
           transform="matrix(0.24,0,0,0.24,99.16654,-152.64)"
           id="g104"><text
             id="text106"
             style="font-variant:normal;font-weight:normal;font-size:75px;font-family:'Open Sans';-inkscape-font-specification:OpenSans;writing-mode:lr-tb;fill:#7f7f7f;fill-opacity:1;fill-rule:nonzero;stroke:none"
             transform="matrix(1,0,0,-1,0,2250)"><tspan
               id="tspan108"
               y="0"
               x="0 42.705002">2.</tspan></text>
</g><g
           transform="matrix(0.24,0,0,0.24,99.16654,-173.76)"
           id="g110"><text
             id="text112"
             style="font-variant:normal;font-weight:normal;font-size:75px;font-family:'Open Sans';-inkscape-font-specification:OpenSans;writing-mode:lr-tb;fill:#7f7f7f;fill-opacity:1;fill-rule:nonzero;stroke:none"
             transform="matrix(1,0,0,-1,0,2250)"><tspan
               id="tspan114"
               y="0"
               x="0 42.705002">3.</tspan></text>
</g><g
           transform="matrix(0.24,0,0,0.24,99.16654,-195.84)"
           id="g116"><text
             id="text118"
             style="font-variant:normal;font-weight:normal;font-size:75px;font-family:'Open Sans';-inkscape-font-specification:OpenSans;writing-mode:lr-tb;fill:#7f7f7f;fill-opacity:1;fill-rule:nonzero;stroke:none"
             transform="matrix(1,0,0,-1,0,2250)"><tspan
               id="tspan120"
               y="0"
               x="0 42.705002">4.</tspan></text>
</g><g
           transform="matrix(0.24,0,0,0.24,99.16654,-216.72)"
           id="g122"><text
             id="text124"
             style="font-variant:normal;font-weight:normal;font-size:75px;font-family:'Open Sans';-inkscape-font-specification:OpenSans;writing-mode:lr-tb;fill:#7f7f7f;fill-opacity:1;fill-rule:nonzero;stroke:none"
             transform="matrix(1,0,0,-1,0,2250)"><tspan
               id="tspan126"
               y="0"
               x="0 42.705002">5.</tspan></text>
</g><g
           transform="matrix(0.24,0,0,0.24,99.16654,-238.8)"
           id="g128"><text
             id="text130"
             style="font-variant:normal;font-weight:normal;font-size:75px;font-family:'Open Sans';-inkscape-font-specification:OpenSans;writing-mode:lr-tb;fill:#7f7f7f;fill-opacity:1;fill-rule:nonzero;stroke:none"
             transform="matrix(1,0,0,-1,0,2250)"><tspan
               id="tspan132"
               y="0"
               x="0 42.705002">6.</tspan></text>
</g><g
           transform="matrix(0.24,0,0,0.24,99.16654,-260.64)"
           id="g134"><text
             id="text136"
             style="font-variant:normal;font-weight:normal;font-size:75px;font-family:'Open Sans';-inkscape-font-specification:OpenSans;writing-mode:lr-tb;fill:#7f7f7f;fill-opacity:1;fill-rule:nonzero;stroke:none"
             transform="matrix(1,0,0,-1,0,2250)"><tspan
               id="tspan138"
               y="0"
               x="0 42.705002">7.</tspan></text>
</g><g
           transform="matrix(7.874016e-5,0,0,-7.874016e-5,144,417.3333)"
           id="g140"><path
             id="path142"
             style="fill:none;stroke:#d9d9d9;stroke-width:228600;stroke-linecap:round;stroke-linejoin:miter;stroke-miterlimit:8;stroke-dasharray:none;stroke-opacity:1"
             d="M 0,0 3403600,1" /></g><g
           transform="matrix(7.874016e-5,0,0,-7.874016e-5,144,394.6666)"
           id="g144"><path
             id="path146"
             style="fill:none;stroke:#d9d9d9;stroke-width:228600;stroke-linecap:round;stroke-linejoin:miter;stroke-miterlimit:8;stroke-dasharray:none;stroke-opacity:1"
             d="M 0,0 2269067,1" /></g><g
           transform="matrix(7.874016e-5,0,0,-7.874016e-5,144,371.9999)"
           id="g148"><path
             id="path150"
             style="fill:none;stroke:#d9d9d9;stroke-width:228600;stroke-linecap:round;stroke-linejoin:miter;stroke-miterlimit:8;stroke-dasharray:none;stroke-opacity:1"
             d="M 0,0 1659467,1" /></g><g
           transform="matrix(7.874016e-5,0,0,-7.874016e-5,192,350.6666)"
           id="g152"><path
             id="path154"
             style="fill:none;stroke:#d9d9d9;stroke-width:228600;stroke-linecap:round;stroke-linejoin:miter;stroke-miterlimit:8;stroke-dasharray:none;stroke-opacity:1"
             d="M 0,0 1659467,1" /></g><g
           transform="matrix(7.874016e-5,0,0,-7.874016e-5,192,327.9999)"
           id="g156"><path
             id="path158"
             style="fill:none;stroke:#d9d9d9;stroke-width:228600;stroke-linecap:round;stroke-linejoin:miter;stroke-miterlimit:8;stroke-dasharray:none;stroke-opacity:1"
             d="M 0,0 1422400,1" /></g><g
           transform="matrix(7.874016e-5,0,0,-7.874016e-5,113.3334,192)"
           id="g160"><path
             id="path162"
             style="fill:none;stroke:#f2f2f2;stroke-width:228600;stroke-linecap:round;stroke-linejoin:miter;stroke-miterlimit:8;stroke-dasharray:none;stroke-opacity:1"
             d="M 0,0 3793066,1" /></g><g
           transform="matrix(7.874016e-5,0,0,-7.874016e-5,113.3334,166.6666)"
           id="g164"><path
             id="path166"
             style="fill:none;stroke:#00b0f0;stroke-width:228600;stroke-linecap:round;stroke-linejoin:miter;stroke-miterlimit:8;stroke-dasharray:none;stroke-opacity:1"
             d="M 0,0 999066,1" /></g><path
           id="path168"
           style="fill:#00b0f0;fill-opacity:1;fill-rule:nonzero;stroke:none"
           d="m 494.6667,87.0549 33.33331,0 0,150.5935 -33.33331,0 0,-150.5935 z" /><path
           id="path170"
           style="fill:#00b0f0;fill-opacity:1;fill-rule:nonzero;stroke:none"
           d="m 542.2649,87.0549 30.88559,0 0,121.9635 -30.88559,0 0,-121.9635 z" /><path
           id="path172"
           style="fill:#00b0f0;fill-opacity:1;fill-rule:nonzero;stroke:none"
           d="m 587.4155,87.05483 33.16898,0 0,91.29677 -33.16898,0 0,-91.29677 z" /><path
           id="path174"
           style="fill:#00b0f0;fill-opacity:1;fill-rule:nonzero;stroke:none"
           d="m 634.8494,87.0549 33.16898,0 0,60 -33.16898,0 0,-60 z" /><path
           id="path176"
           style="fill:#00b0f0;fill-opacity:1;fill-rule:nonzero;stroke:none"
           d="m 681.3701,87.0549 33.33331,0 0,133.3333 -33.33331,0 0,-133.3333 z" /></g></g></g></svg>